#!OML:ASF H:\Punching\Project 1\Capture day 1\Session 1\female.ASF
:FULLY-SPECIFIED
:DEGREES
4544
root 6.03211 15.7804 19.489 -348.945 199.034 2.07894
lowerback -5.77128 -0.450683 4.46349
upperback -5.51643 -1.14902 1.43566
thorax -2.51265 -0.868781 -1.05021
lowerneck -13.0208 7.9029 11.879
upperneck 38.4049 7.73378 -7.05938
head 17.0294 2.80548 -4.21508
rclavicle 4.63665e-014 1.27222e-014
rhumerus -40.9163 -5.77263 -67.9076
rradius 35.3189
rwrist 1.92054
rhand -11.8403 -7.90416
rfingers 7.12502
rthumb 14.2109 -37.398
lclavicle 4.63665e-014 1.27222e-014
lhumerus -43.8503 5.42484 78.0127
lradius 32.4573
lwrist -20.9673
lhand -3.46549 13.377
lfingers 7.12502
lthumb 22.2672 42.1141
rfemur -18.1456 0.639965 29.8371
rtibia 22.0528
rfoot -13.4626 -13.3471
rtoes 4.60275
lfemur -29.8548 -0.289801 -18.4957
ltibia 64.5202
lfoot -9.56845 13.8953
ltoes -4.84966
4545
root 6.00983 15.7627 19.3827 -348.947 198.832 2.14744
lowerback -5.76029 -0.327047 4.59878
upperback -5.51354 -0.988696 1.3691
thorax -2.51178 -0.794011 -1.18897
lowerneck -12.97 7.90598 11.9007
upperneck 38.4732 7.71033 -7.03193
head 17.0514 2.79888 -4.21661
rclavicle -4.73604e-014 -5.56597e-015
rhumerus -40.4884 -5.57305 -68.124
rradius 35.5159
rwrist 1.72118
rhand -11.8183 -7.91035
rfingers 7.12502
rthumb 14.2321 -37.4027
lclavicle -4.73604e-014 -5.56597e-015
lhumerus -44.1003 5.4185 77.7112
lradius 32.7009
lwrist -20.4113
lhand -3.65011 13.3693
lfingers 7.12502
lthumb 22.0899 42.1275
rfemur -17.8992 0.854603 29.9499
rtibia 22.4545
rfoot -13.98 -13.5167
rtoes 4.55234
lfemur -30.948 -0.395854 -18.5929
ltibia 63.9822
lfoot -10.7812 14.1857
ltoes -5.3801
4546
root 5.98664 15.7419 19.2766 -348.966 198.618 2.20479
lowerback -5.72366 -0.207989 4.72847
upperback -5.5037 -0.831438 1.29724
thorax -2.51708 -0.720043 -1.32997
lowerneck -12.9275 7.91627 11.9254
upperneck 38.5436 7.69651 -7.0048
head 17.0784 2.79659 -4.21696
rclavicle 2.2003e-014 5.56597e-015
rhumerus -40.0298 -5.37894 -68.3513
rradius 35.6656
rwrist 1.57545
rhand -11.7852 -7.91223
rfingers 7.12502
rthumb 14.264 -37.4024
lclavicle 2.2003e-014 5.56597e-015
lhumerus -44.3444 5.39756 77.4252
lradius 32.9477
lwrist -19.8699
lhand -3.83602 13.3718
lfingers 7.12502
lthumb 21.9114 42.151
rfemur -17.6366 1.08994 30.0475
rtibia 22.8764
rfoot -14.5164 -13.7105
rtoes 4.49803
lfemur -31.9696 -0.514728 -18.6962
ltibia 63.2709
lfoot -11.9498 14.5016
ltoes -5.8474
4547
root 5.96275 15.722 19.1701 -348.992 198.391 2.23682
lowerback -5.67184 -0.0960623 4.83405
upperback -5.4901 -0.68089 1.21966
thorax -2.52599 -0.648283 -1.46364
lowerneck -12.8813 7.93356 11.954
upperneck 38.6088 7.69499 -6.98248
head 17.1041 2.79944 -4.21755
rclavicle 5.71382e-014 1.55052e-014
rhumerus -39.5459 -5.18356 -68.5894
rradius 35.7715
rwrist 1.47887
rhand -11.7491 -7.9109
rfingers 7.12502
rthumb 14.2987 -37.3986
lclavicle 5.71382e-014 1.55052e-014
lhumerus -44.5895 5.37028 77.1531
lradius 33.1953
lwrist -19.3604
lhand -4.02509 13.3795
lfingers 7.12502
lthumb 21.7299 42.1799
rfemur -17.3514 1.34189 30.1157
rtibia 23.2956
rfoot -15.0638 -13.9241
rtoes 4.46054
lfemur -32.9079 -0.650499 -18.813
ltibia 62.3676
lfoot -13.0419 14.8356
ltoes -6.27098
4548
root 5.93832 15.7023 19.0638 -349.016 198.159 2.24562
lowerback -5.60654 0.00892743 4.92046
upperback -5.47993 -0.537634 1.13487
thorax -2.54535 -0.579816 -1.59427
lowerneck -12.8203 7.95512 11.9906
upperneck 38.664 7.70144 -6.96552
head 17.1226 2.80625 -4.22011
rclavicle -1.95057e-014 -7.55382e-015
rhumerus -39.048 -4.98784 -68.8395
rradius 35.8351
rwrist 1.43223
rhand -11.716 -7.88413
rfingers 7.12502
rthumb 14.3307 -37.3695
lclavicle -1.95057e-014 -7.55382e-015
lhumerus -44.8385 5.34287 76.8858
lradius 33.4344
lwrist -18.9037
lhand -4.21125 13.3839
lfingers 7.12502
lthumb 21.5511 42.2049
rfemur -17.044 1.60606 30.1585
rtibia 23.6858
rfoot -15.597 -14.155
rtoes 4.40072
lfemur -33.7746 -0.805332 -18.9356
ltibia 61.2807
lfoot -14.0355 15.1778
ltoes -6.62078
4549
root 5.91353 15.684 18.9572 -349.032 197.933 2.23114
lowerback -5.53784 0.104422 4.98506
upperback -5.47416 -0.405944 1.04424
thorax -2.57093 -0.516758 -1.71927
lowerneck -12.7448 7.97915 12.0337
upperneck 38.7064 7.71425 -6.95422
head 17.1322 2.81631 -4.22461
rclavicle 4.36954e-014 1.11319e-014
rhumerus -38.5362 -4.79972 -69.0964
rradius 35.8602
rwrist 1.44186
rhand -11.6654 -7.85172
rfingers 7.12502
rthumb 14.3794 -37.3337
lclavicle 4.36954e-014 1.11319e-014
lhumerus -45.0938 5.31193 76.6258
lradius 33.6671
lwrist -18.5031
lhand -4.39787 13.3975
lfingers 7.12502
lthumb 21.3719 42.2389
rfemur -16.698 1.87839 30.1769
rtibia 23.9979
rfoot -16.084 -14.3979
rtoes 4.35542
lfemur -34.5698 -0.987283 -19.0565
ltibia 60.0058
lfoot -14.9118 15.5145
ltoes -6.93712
